HIERARCHY
ROOT Hips
{
	OFFSET -3.958830 18.904000 13.208200
	CHANNELS 6 Xposition Yposition Zposition Zrotation Yrotation Xrotation 
	JOINT LHipJoint
	{
		OFFSET 0.000000 0.000000 0.000000
		CHANNELS 3 Zrotation Yrotation Xrotation
		JOINT LeftUpLeg
		{
			OFFSET 1.800000 -1.400000 0.085000
			CHANNELS 3 Zrotation Yrotation Xrotation
			JOINT LeftLeg
			{
				OFFSET 2.215000 -6.000000 0.000000
				CHANNELS 3 Zrotation Yrotation Xrotation
				JOINT LeftFoot
				{
					OFFSET 2.500000 -6.900000 0.000000
					CHANNELS 3 Zrotation Yrotation Xrotation
					JOINT LeftToeBase
					{
						OFFSET 0.200000 -0.500000 1.950000
						CHANNELS 3 Zrotation Yrotation Xrotation
						End Site
						{
							OFFSET 0.000000 0.000000 0.000000
						}
					}
				}
			}
		}
	}
	JOINT RHipJoint
	{
		OFFSET 0.000000 0.000000 0.000000
		CHANNELS 3 Zrotation Yrotation Xrotation
		JOINT RightUpLeg
		{
			OFFSET -1.800000 -1.400000 0.085000
			CHANNELS 3 Zrotation Yrotation Xrotation
			JOINT RightLeg
			{
				OFFSET -2.215000 -6.000000 0.000000
				CHANNELS 3 Zrotation Yrotation Xrotation
				JOINT RightFoot
				{
					OFFSET -2.500000 -6.900000 0.000000
					CHANNELS 3 Zrotation Yrotation Xrotation
					JOINT RightToeBase
					{
						OFFSET -0.200000 -0.500000 1.950000
						CHANNELS 3 Zrotation Yrotation Xrotation
						End Site
						{
							OFFSET 0.000000 0.000000 0.000000
						}
					}
				}
			}
		}
	}
	JOINT LowerBack
	{
		OFFSET 0.000000 0.000000 0.000000
		CHANNELS 3 Zrotation Yrotation Xrotation
		JOINT Spine
		{
			OFFSET -0.087000 1.940000 -0.288900
			CHANNELS 3 Zrotation Yrotation Xrotation
			JOINT Spine1
			{
				OFFSET 0.000000 1.950000 0.060000
				CHANNELS 3 Zrotation Yrotation Xrotation
				JOINT Neck
				{
					OFFSET 0.000000 0.000000 0.000000
					CHANNELS 3 Zrotation Yrotation Xrotation
					JOINT Neck1
					{
						OFFSET 0.000000 1.600000 0.340000
						CHANNELS 3 Zrotation Yrotation Xrotation
						JOINT Head
						{
							OFFSET 0.000000 1.667000 -0.240000
							CHANNELS 3 Zrotation Yrotation Xrotation
							End Site
							{
								OFFSET 0.000000 0.000000 0.000000
							}
						}
					}
				}
				JOINT LeftShoulder
				{
					OFFSET 0.000000 0.000000 0.000000
					CHANNELS 3 Zrotation Yrotation Xrotation
					JOINT LeftArm
					{
						OFFSET 2.700000 1.550000 -0.730000
						CHANNELS 3 Zrotation Yrotation Xrotation
						JOINT LeftForeArm
						{
							OFFSET 5.450000 0.000000 0.000000
							CHANNELS 3 Zrotation Yrotation Xrotation
							JOINT LeftHand
							{
								OFFSET 3.450000 0.000000 0.000000
								CHANNELS 3 Zrotation Yrotation Xrotation
								JOINT LeftHandIndex1
								{
									OFFSET 0.750000 0.000000 0.000000
									CHANNELS 3 Zrotation Yrotation Xrotation
									End Site
									{
										OFFSET 0.000000 0.000000 0.000000
									}
								}
							}
						}
					}
				}
				JOINT RightShoulder
				{
					OFFSET 0.000000 0.000000 0.000000
					CHANNELS 3 Zrotation Yrotation Xrotation
					JOINT RightArm
					{
						OFFSET -2.700000 1.550000 -0.730000
						CHANNELS 3 Zrotation Yrotation Xrotation
						JOINT RightForeArm
						{
							OFFSET -5.450000 0.000000 0.000000
							CHANNELS 3 Zrotation Yrotation Xrotation
							JOINT RightHand
							{
								OFFSET -3.450000 0.000000 0.000000
								CHANNELS 3 Zrotation Yrotation Xrotation
								JOINT RightHandIndex1
								{
									OFFSET -0.750000 0.000000 0.000000
									CHANNELS 3 Zrotation Yrotation Xrotation
									End Site
									{
										OFFSET 0.000000 0.000000 0.000000
									}
								}
							}
						}
					}
				}
			}
		}
	}
}
MOTION
Frames: 10
Frame Time: 0.016667
-0.565270 18.175260 -4.550640 3.695053 -0.012240 0.722083 -15.282206 11.449842 5.085489 -3.824729 -8.276035 -31.615318 -11.768410 -0.223059 -16.391654 -0.490405 2.772583 3.679989 0.489320 0.342950 0.488660 18.348893 -10.624225 1.916368 -3.865365 -0.028137 -8.676110 3.044552 -5.216457 19.251193 -0.277887 -3.885483 3.055723 0.269320 0.135620 0.159490 -3.526983 -0.959689 -8.215888 7.365824 1.913015 15.857613 -6.287870 4.528572 14.439829 3.144271 -2.670237 -10.509741 -7.794180 -0.524919 37.772531 -8.137260 0.409890 -8.746390 13.833164 -13.460114 1.137274 25.965259 -24.357141 -3.913791 18.403571 -8.004947 -1.489736 -3.955288 2.957551 0.227880 0.166550 0.002460 0.116220 -20.168375 18.151526 4.175607 -25.814175 17.568847 -6.669729 -27.174085 3.214958 -2.483028 2.686783 -1.687947 -0.093510 0.210630 -0.135130 -0.144360 
-0.631220 17.994510 -4.540050 2.902088 -0.686908 1.731357 -15.250813 11.255002 5.194027 -4.153256 -8.793411 -35.234407 -10.426731 -0.110547 -16.177668 -0.598621 2.616903 3.758979 0.462560 0.304530 0.486380 18.412349 -10.634199 1.933947 -2.386309 0.297436 -9.973845 2.600050 -5.219697 21.378290 -0.255313 -3.953880 3.036723 0.284280 0.197670 0.135080 -3.665732 -0.659664 -8.233560 8.432784 2.645252 15.200656 -5.930118 5.219554 13.438892 2.855920 -2.682741 -9.644713 -7.607218 -1.094714 36.838722 -8.573990 -0.049630 -8.481720 12.569692 -12.413708 0.613515 23.981001 -25.243866 -3.749125 22.149116 -13.164703 -2.329424 -3.945491 2.957314 0.218140 0.205030 -0.042140 0.115950 -18.483328 17.056417 3.993598 -24.083796 17.725509 -7.205767 -32.920871 7.524417 -3.783808 2.577108 -1.776709 -0.151670 0.277680 -0.111480 -0.153600 
-0.708410 17.872200 -4.506460 1.845237 -0.771524 2.154233 -15.142267 10.995700 5.194992 -4.411218 -8.887524 -38.140770 -9.063370 0.255073 -14.740361 -0.724282 2.468453 3.838917 0.408620 0.262880 0.409410 18.550998 -10.737275 2.026144 -0.841899 0.480077 -10.269846 2.748701 -5.331809 22.509419 -0.218993 -4.142662 2.998363 0.315330 0.321920 0.117280 -4.034405 -0.021090 -8.211979 10.676005 3.246178 14.851969 -6.491168 6.021738 12.534779 2.383059 -2.650399 -8.282241 -7.065015 -1.817322 35.525294 -8.533660 -1.034620 -7.012760 9.833332 -11.784228 -0.275524 22.905390 -26.088270 -3.763871 27.093941 -22.136218 -4.081506 -3.970674 2.952372 0.148800 0.297570 -0.141810 0.125400 -15.089916 16.158399 3.543143 -22.087745 19.551673 -7.897527 -39.801490 10.923081 -5.633336 2.433065 -1.839495 -0.212120 0.347750 -0.053630 -0.134770 
-0.777010 17.834370 -4.466400 0.561732 -0.504093 1.208517 -14.999698 10.933941 5.112635 -4.262627 -8.421720 -39.172429 -8.490657 0.755303 -12.031272 -0.816938 2.315623 3.890017 0.363320 0.187530 0.379190 18.678019 -10.883014 2.183799 0.437324 0.307599 -8.722583 3.189723 -5.600291 22.789317 -0.260963 -4.278725 2.980657 0.270490 0.354590 0.081570 -4.426449 0.404722 -8.255784 13.990313 3.123048 16.703713 -7.943228 6.695028 11.862625 1.974752 -3.251199 -8.008913 -8.460407 -1.810564 36.671665 -6.637650 -2.476520 -8.273580 6.140719 -11.819021 -0.564977 21.400347 -24.959812 -3.918386 34.379439 -31.644034 -7.452924 -3.902569 2.807801 0.212460 0.263260 -0.158580 0.098920 -10.979570 16.233852 4.109247 -19.007212 17.326729 -8.814281 -50.663128 17.663627 -9.294681 2.304617 -1.756790 -0.254700 0.416450 0.007970 -0.141690 
-0.835880 17.847910 -4.436110 -1.046464 1.129201 -0.321761 -14.899496 10.954638 5.022416 -3.853898 -7.976045 -39.466900 -9.675503 1.222802 -8.744155 -0.779209 2.198249 3.907225 0.389340 0.191630 0.376680 18.761288 -10.919139 2.377495 2.108993 -0.092808 -6.622194 4.107494 -5.904596 22.356458 -0.364750 -4.395127 2.932841 0.238950 0.281840 0.076300 -4.695785 0.527741 -8.323003 17.471624 2.463699 19.177243 -8.781778 6.945699 11.336125 1.690300 -4.002868 -8.460226 -10.478721 -1.033619 38.358561 -4.060670 -3.183970 -8.920760 1.705979 -12.570307 -0.297259 18.844980 -23.496453 -4.078749 44.492974 -40.976166 -13.208121 -3.731437 2.716971 0.274880 0.166850 -0.108110 0.113810 -6.292149 17.050978 5.126072 -15.675450 12.571958 -9.393558 -64.080162 25.453148 -15.641341 2.215518 -1.715192 -0.222920 0.364500 -0.027210 -0.136710 
-0.919880 17.889160 -4.368070 -1.614662 1.959515 -0.435996 -14.844904 10.897448 4.987037 -3.471779 -7.952200 -40.082861 -10.978349 1.611946 -6.287781 -0.776578 2.268069 3.886964 0.358490 0.160950 0.285420 18.830569 -10.909982 2.437466 3.292760 -0.121342 -6.507558 4.055194 -5.890581 22.760329 -0.347630 -4.493463 2.905165 0.242240 0.356940 0.078160 -4.879666 0.651498 -8.250488 18.524876 1.905790 19.067226 -9.697545 6.414760 11.633651 1.078941 -5.294110 -8.423773 -12.510396 1.469248 37.376702 -1.546230 -2.460380 -7.061530 -0.840063 -10.864034 0.271601 10.892355 -20.846669 -2.726340 61.782065 -50.544569 -25.449142 -3.675721 2.498555 0.233180 0.205800 -0.178640 0.136330 -2.652970 15.868747 4.980258 -9.110259 13.355892 -8.859366 -80.845305 30.959465 -26.196846 2.055915 -1.699077 -0.240210 0.349210 0.004220 -0.112540 
-1.027010 17.961250 -4.298820 -2.536395 2.461901 -0.647983 -14.876128 10.930885 4.937425 -2.367389 -7.689552 -40.687442 -11.962414 2.134274 -3.427961 -0.815572 2.395975 3.816299 0.416460 0.219780 0.347650 18.814200 -10.819651 2.521087 5.534113 0.021320 -7.021462 3.060088 -5.666129 24.625859 -0.373009 -4.590937 2.839284 0.302220 0.338160 0.106490 -4.808302 0.534257 -8.178866 17.674512 1.357639 19.866280 -8.873137 5.650688 12.812595 0.893807 -6.098941 -7.934011 -12.830109 2.196427 33.792583 -3.181630 -0.946550 -8.968690 -3.340600 -7.665132 0.615928 1.443533 -20.002462 -0.811974 85.603989 -53.611974 -44.370022 -3.686700 2.170568 0.210670 0.230090 -0.184120 0.126420 0.290339 13.308110 4.423702 -0.240682 15.965115 -7.459214 -98.171855 34.177668 -41.058782 1.918928 -1.699421 -0.233370 0.327320 -0.013470 -0.137680 
-1.124770 18.036400 -4.213090 -3.393087 3.441702 -0.912411 -14.898167 11.077351 4.855241 -2.041904 -7.418597 -40.736068 -12.145377 2.716922 -0.530250 -0.849962 2.489477 3.763153 0.298600 0.040250 0.279350 18.787895 -10.691400 2.653939 7.601579 0.517361 -8.078100 2.946994 -5.869086 27.430193 -0.384487 -4.756030 2.765752 0.203460 0.336230 0.082040 -4.745434 0.222942 -8.175845 17.714596 0.856264 20.607592 -8.926393 5.294763 13.722426 0.962508 -7.053536 -9.652305 -14.716730 3.796404 33.273427 -2.306970 -0.025530 -8.649750 -5.176066 -6.285920 2.579934 -7.837492 -16.616219 1.026568 105.276973 -54.193755 -66.948179 -3.811375 2.119694 0.290300 0.195850 -0.218430 0.069480 2.310137 12.605718 5.940089 10.754727 14.148948 -6.200109 -115.097200 37.259967 -62.555453 1.878754 -1.636067 -0.299470 0.302710 0.072080 -0.181500 
-1.232810 18.151580 -4.178140 -3.968804 4.506574 -2.322960 -14.948019 11.408954 4.648100 -2.590402 -6.899352 -39.638146 -10.615500 3.267702 2.912949 -0.879884 2.484582 3.772315 0.185430 -0.134760 0.228960 18.709482 -10.538958 2.830513 8.697445 1.630644 -9.428164 4.396253 -6.875782 31.668956 -0.467190 -5.189395 2.623974 0.090840 0.348250 0.064810 -4.575494 -0.329378 -8.161976 17.234683 -0.053510 23.920377 -8.457038 4.930136 14.620356 1.257021 -8.928110 -11.182368 -18.763031 5.018796 32.425249 -2.311100 -0.069710 -9.812330 -7.230604 -5.233558 4.070374 -19.448145 -14.272112 1.369913 119.956962 -53.439193 -88.927497 -3.959204 2.418945 0.381560 0.153970 -0.221200 0.029730 4.100940 12.997367 7.324705 18.849507 12.167621 -5.898531 -128.376948 41.242275 -88.451163 1.941871 -1.575812 -0.355840 0.326170 0.144850 -0.202920 
-1.342630 18.253860 -4.159840 -4.796282 4.113964 -3.334724 -14.972146 11.602206 4.423144 -1.332405 -5.960380 -39.124275 -9.878948 3.902920 6.450189 -0.825578 2.600929 3.684158 0.173440 -0.172530 0.260430 18.669130 -10.342996 3.125217 10.185058 3.890558 -12.115396 5.582321 -7.906442 37.695458 -0.649532 -5.854932 2.368161 0.030750 0.256760 0.056380 -4.479018 -0.610673 -8.222620 16.525418 -0.525395 27.610889 -8.664813 5.011859 14.144824 1.748354 -9.983949 -11.921958 -21.054771 6.317399 31.871730 -2.622560 0.711440 -12.194860 -10.149429 -4.850963 4.688857 -27.818791 -10.648016 -0.403922 131.165989 -55.318970 -110.408608 -3.925744 2.759308 0.447920 0.065910 -0.167980 -0.009180 6.202150 13.629861 8.030802 26.484139 11.453853 -6.224958 -137.019323 48.061880 -114.117825 2.067313 -1.606316 -0.334420 0.281970 0.140210 -0.225340 
